<?xml version="1.0" standalone="no"?>
<!DOCTYPE svg PUBLIC "-//W3C//DTD SVG 20010904//EN"
 "http://www.w3.org/TR/2001/REC-SVG-20010904/DTD/svg10.dtd">
<svg version="1.0" xmlns="http://www.w3.org/2000/svg"
 width="225.000000pt" height="225.000000pt" viewBox="0 0 225.000000 225.000000"
 preserveAspectRatio="xMidYMid meet">

<g transform="translate(0.000000,225.000000) scale(0.100000,-0.100000)"
fill="#000000" stroke="none">
<path d="M920 1854 c-237 -36 -364 -96 -505 -238 -78 -78 -98 -106 -143 -196
-88 -178 -130 -403 -118 -630 7 -149 13 -179 35 -174 9 2 41 8 71 14 l55 10 0
213 c0 248 15 326 92 487 82 170 225 287 409 334 89 23 226 35 325 29 l86 -6
7 73 c5 55 3 76 -6 82 -13 7 -258 9 -308 2z"/>
<path d="M140 1793 l-35 -4 7 -82 c3 -45 7 -85 7 -89 1 -5 34 -8 75 -8 l74 0
10 33 c29 93 19 131 -36 147 -21 5 -44 9 -52 8 -8 -1 -31 -3 -50 -5z"/>
<path d="M659 1379 l-76 -40 8 -47 c5 -26 11 -141 14 -257 7 -254 9 -266 42
-306 30 -35 56 -47 129 -59 114 -19 169 21 245 176 70 142 117 181 178 149 56
-28 83 -123 42 -145 -28 -15 -96 -12 -137 5 -40 16 -35 24 -63 -88 l-19 -77
31 -17 c46 -25 179 -23 232 3 38 18 40 22 47 79 17 131 -25 299 -88 354 -43
38 -73 46 -118 31 -44 -14 -81 -59 -137 -162 -62 -114 -117 -150 -199 -128
l-40 11 0 279 c0 154 -3 280 -7 280 -5 0 -42 -19 -84 -41z"/>
<path d="M2002 1393 l-54 -4 -24 -55 c-13 -30 -24 -60 -24 -66 0 -7 21 -9 68
-4 37 3 102 9 144 12 l78 7 10 35 c7 28 6 41 -5 59 -16 24 -41 26 -193 16z"/>
<path d="M2058 1093 l-57 -58 34 -69 c56 -110 54 -113 -106 -123 l-95 -6 -12
54 c-47 206 -187 301 -288 193 -38 -40 -69 -118 -84 -209 -19 -122 12 -194 93
-216 47 -13 127 -5 168 17 43 22 49 18 49 -32 0 -45 0 -45 -53 -68 -57 -26
-127 -42 -225 -52 -59 -6 -63 -8 -71 -38 -10 -36 6 -54 74 -86 48 -23 150 -26
198 -6 69 29 121 104 142 206 l12 55 109 11 c146 15 175 28 203 93 33 78 44
152 33 225 -10 62 -48 166 -61 166 -4 0 -32 -26 -63 -57z m-394 -135 c31 -32
75 -123 64 -134 -3 -3 -37 -8 -76 -11 -95 -8 -122 8 -122 71 0 33 7 52 26 75
34 41 67 40 108 -1z"/>
</g>
</svg>
